#!OML:ASF X:\für Bonn\!DataBase\2005_08_10_Bjorn_Final\c3d\bjorn.ASF
:FULLY-SPECIFIED
:DEGREES
46
root 18.6435 19.2535 0.306286 1103.39 -87.3951 -382.129
lowerback 21.6461 5.63942 6.85699
upperback 20.3223 6.06591 -0.500549
thorax 12.0709 3.20897 -5.1219
lowerneck 1.74228 -1.58859 2.25623
upperneck 9.12863 -1.89228 -4.91558
head 2.53198 -1.03546 -2.00588
rclavicle -1.27222e-014 -1.11319e-014
rhumerus 15.3912 -4.50465 -81.412
rradius 25.334
rwrist -4.28125
rhand -12.1579 11.2555
rfingers 7.12502
rthumb 13.9048 -18.2597
lclavicle -1.27222e-014 -1.11319e-014
lhumerus -14.932 -8.54723 87.9274
lradius 41.3577
lwrist -16.281
lhand -21.637 -11.5279
lfingers 7.12502
lthumb 4.75927 18.3986
rfemur -16.8603 -14.9574 18.5951
rtibia 32.6678
rfoot -7.31182 22.3313
rtoes 2.525
lfemur -23.4056 9.71626 -13.9838
ltibia 32.4963
lfoot -4.47469 3.05851
ltoes -4.73767
47
root 18.6435 19.2519 0.326061 1107.96 -87.4062 -386.267
lowerback 22.5132 5.66485 6.74375
upperback 20.3922 6.06898 -0.522998
thorax 11.7065 3.17478 -5.15529
lowerneck 2.44851 -1.59074 2.16509
upperneck 8.08356 -1.91127 -4.87216
head 2.05976 -1.02693 -1.94378
rclavicle 1.00983e-013 -7.4743e-014
rhumerus 16.2142 -4.4139 -81.34
rradius 25.3401
rwrist -4.34708
rhand -11.9427 11.1715
rfingers 7.12502
rthumb 14.1122 -18.3293
lclavicle 1.00983e-013 -7.4743e-014
lhumerus -14.6256 -9.13484 87.8172
lradius 42.0707
lwrist -15.3521
lhand -21.5982 -11.4559
lfingers 7.12502
lthumb 4.79676 18.4698
rfemur -17.4424 -14.8669 18.8441
rtibia 32.8127
rfoot -7.34582 22.3076
rtoes 2.5896
lfemur -23.8255 9.76958 -13.9183
ltibia 32.6379
lfoot -4.46139 2.81378
ltoes -5.04819
48
root 18.6435 19.251 0.348186 1112.28 -87.3877 -390.116
lowerback 23.3242 5.67282 6.61829
upperback 20.4908 6.03682 -0.542111
thorax 11.4067 3.1219 -5.1687
lowerneck 3.13357 -1.57319 2.01676
upperneck 6.99988 -1.91 -4.79942
head 1.58992 -1.00839 -1.86508
rclavicle 4.77083e-015 3.53837e-014
rhumerus 17.0936 -4.17278 -81.193
rradius 25.3761
rwrist -4.61164
rhand -11.7552 11.1296
rfingers 7.12502
rthumb 14.2929 -18.3585
lclavicle 4.77083e-015 3.53837e-014
lhumerus -14.2697 -9.58415 87.6871
lradius 42.7876
lwrist -14.3405
lhand -21.5065 -11.489
lfingers 7.12502
lthumb 4.88533 18.4347
rfemur -18.0651 -14.8214 19.0924
rtibia 32.956
rfoot -7.44647 22.3029
rtoes 2.29223
lfemur -24.2883 9.89892 -13.8912
ltibia 32.7385
lfoot -4.41489 2.47801
ltoes -5.3495
49
root 18.6449 19.252 0.37225 1116.29 -87.3399 -393.649
lowerback 24.1573 5.67992 6.56259
upperback 20.5867 6.01284 -0.581293
thorax 11.1164 3.08486 -5.24416
lowerneck 3.81242 -1.57886 1.89383
upperneck 5.93436 -1.94305 -4.68324
head 1.13489 -1.00525 -1.78136
rclavicle -6.36111e-015 -3.1408e-014
rhumerus 17.9315 -3.91946 -80.9996
rradius 25.4642
rwrist -5.04995
rhand -11.6287 11.054
rfingers 7.12502
rthumb 14.4148 -18.4255
lclavicle -6.36111e-015 -3.1408e-014
lhumerus -13.8887 -10.0747 87.5262
lradius 43.4517
lwrist -13.2554
lhand -21.4607 -11.7017
lfingers 7.12502
lthumb 4.92951 18.221
rfemur -18.7027 -14.7472 19.3326
rtibia 33.0964
rfoot -7.48208 22.2586
rtoes 2.19352
lfemur -24.7582 9.98652 -13.8746
ltibia 32.801
lfoot -4.40492 2.18801
ltoes -5.58561
50
root 18.6473 19.2527 0.398031 1120.28 -87.2622 -397.125
lowerback 24.8734 5.68496 6.49076
upperback 21.1215 5.97962 -0.682894
thorax 10.5464 3.01982 -5.20202
lowerneck 4.47747 -1.57502 1.75683
upperneck 4.78769 -1.96708 -4.60184
head 0.664402 -0.997264 -1.71046
rclavicle 5.00937e-014 -2.26615e-014
rhumerus 18.8683 -3.63802 -80.7646
rradius 25.5359
rwrist -5.51423
rhand -11.4695 11.0112
rfingers 7.12502
rthumb 14.5682 -18.4572
lclavicle 5.00937e-014 -2.26615e-014
lhumerus -13.4464 -10.4372 87.3819
lradius 44.0706
lwrist -12.2788
lhand -21.6385 -11.937
lfingers 7.12502
lthumb 4.7578 17.9896
rfemur -19.3847 -14.7268 19.5961
rtibia 33.2479
rfoot -7.51734 22.2353
rtoes 2.02349
lfemur -25.2726 10.1627 -13.8773
ltibia 32.8404
lfoot -4.37261 1.92401
ltoes -6.07954
51
root 18.6506 19.2545 0.425619 1123.16 -87.2056 -399.476
lowerback 25.6856 5.68915 6.42238
upperback 21.244 5.94196 -0.73915
thorax 10.3115 2.97443 -5.26301
lowerneck 5.17915 -1.59532 1.72951
upperneck 3.61671 -2.0207 -4.57993
head 0.182186 -1.00157 -1.68278
rclavicle 2.38542e-015 3.10104e-014
rhumerus 19.7731 -3.36191 -80.4983
rradius 25.6583
rwrist -6.05109
rhand -11.37 10.9711
rfingers 7.12502
rthumb 14.6641 -18.4904
lclavicle 2.38542e-015 3.10104e-014
lhumerus -12.9728 -10.8651 87.2025
lradius 44.6236
lwrist -11.2437
lhand -21.9354 -12.1978
lfingers 7.12502
lthumb 4.47114 17.7351
rfemur -20.1007 -14.6607 19.7889
rtibia 33.4175
rfoot -7.5486 22.1759
rtoes 1.86998
lfemur -25.8204 10.3171 -13.959
ltibia 32.8705
lfoot -4.33755 1.72585
ltoes -6.82262
52
root 18.6535 19.2557 0.455142 1125.98 -87.1401 -401.734
lowerback 26.4455 5.69259 6.36797
upperback 21.4045 5.89468 -0.797901
thorax 10.1528 2.92782 -5.32794
lowerneck 5.7835 -1.61543 1.74118
upperneck 2.44608 -2.07412 -4.59403
head -0.285014 -1.0063 -1.67988
rclavicle -7.95139e-015 4.96962e-014
rhumerus 20.7704 -3.09584 -80.1964
rradius 25.7535
rwrist -6.58995
rhand -11.2799 10.9554
rfingers 7.12502
rthumb 14.7508 -18.4998
lclavicle -7.95139e-015 4.96962e-014
lhumerus -12.3981 -11.2381 87.0093
lradius 45.1308
lwrist -10.2487
lhand -22.2804 -12.4018
lfingers 7.12502
lthumb 4.138 17.5378
rfemur -20.8678 -14.5601 19.9824
rtibia 33.6197
rfoot -7.56869 22.0883
rtoes 1.69867
lfemur -26.4143 10.4571 -14.0538
ltibia 32.9042
lfoot -4.32418 1.57832
ltoes -7.59999
53
root 18.6565 19.2556 0.485144 1128.03 -87.0631 -403.204
lowerback 27.1708 5.69341 6.32214
upperback 21.5891 5.83902 -0.857727
thorax 10.0441 2.87983 -5.39378
lowerneck 6.33107 -1.63434 1.76874
upperneck 1.30763 -2.12644 -4.615
head -0.737222 -1.01153 -1.68679
rclavicle -9.54166e-015 -1.27222e-014
rhumerus 21.7987 -2.79836 -79.8227
rradius 25.8734
rwrist -7.20368
rhand -11.221 10.9143
rfingers 7.12502
rthumb 14.8076 -18.5367
lclavicle -9.54166e-015 -1.27222e-014
lhumerus -11.7826 -11.6254 86.8007
lradius 45.5943
lwrist -9.40032
lhand -22.6496 -12.5493
lfingers 7.12502
lthumb 3.78152 17.3969
rfemur -21.6745 -14.45 20.1574
rtibia 33.8642
rfoot -7.63663 21.9497
rtoes 1.33447
lfemur -27.0521 10.5889 -14.1848
ltibia 32.9452
lfoot -4.28746 1.39535
ltoes -8.70031
